<?xml version="1.0" standalone="no"?>
<!DOCTYPE svg PUBLIC "-//W3C//DTD SVG 20010904//EN"
 "http://www.w3.org/TR/2001/REC-SVG-20010904/DTD/svg10.dtd">
<svg version="1.0" xmlns="http://www.w3.org/2000/svg"
 width="100.000000pt" height="100.000000pt" viewBox="0 0 100.000000 100.000000"
 preserveAspectRatio="xMidYMid meet">
<metadata>
Created by potrace 1.11, written by Peter Selinger 2001-2013
</metadata>
<g transform="translate(0.000000,100.000000) scale(0.100000,-0.100000)"
fill="#000000" stroke="none">
<path d="M280 993 c0 -5 7 -17 15 -27 27 -35 16 -39 -20 -7 -20 17 -47 31 -61
31 -24 0 -24 -1 -9 -30 18 -34 20 -60 4 -60 -6 0 -3 -7 6 -16 9 -9 18 -14 21
-11 5 5 -6 53 -21 90 -12 30 22 20 67 -20 l41 -38 -6 33 c-8 39 4 41 32 5 27
-33 35 -65 27 -99 -5 -20 -10 -24 -19 -15 -18 18 -117 13 -163 -8 -52 -23 -61
-38 -38 -56 17 -13 17 -14 2 -15 -33 0 -28 -20 17 -64 45 -45 58 -70 31 -60
-19 7 -56 -13 -56 -31 0 -7 -6 -16 -12 -18 -8 -3 -6 -6 5 -6 9 -1 17 5 17 13
0 7 7 19 15 26 12 10 20 9 40 -4 13 -9 27 -16 30 -16 14 0 -38 80 -69 108 -43
37 -44 42 -11 42 31 0 32 13 3 33 -23 15 -23 15 22 36 64 29 147 29 175 -2 11
-13 17 -18 13 -12 -4 6 -2 25 4 42 13 35 6 70 -23 107 -21 27 -79 63 -79 49z"/>
<path d="M137 870 c-23 -18 -72 -90 -62 -90 3 0 16 18 30 41 15 22 41 47 58
54 18 8 25 14 16 15 -9 0 -28 -9 -42 -20z"/>
<path d="M30 775 c11 -13 10 -18 -5 -29 -18 -13 -18 -14 2 -24 13 -8 22 -25
26 -53 5 -38 39 -89 59 -89 5 0 -3 10 -17 23 -20 17 -28 35 -32 70 -4 34 -11
48 -25 53 -18 5 -18 7 -3 18 17 12 12 46 -7 46 -6 0 -5 -7 2 -15z"/>
<path d="M419 673 c-13 -16 -12 -17 4 -4 16 13 21 21 13 21 -2 0 -10 -8 -17
-17z"/>
<path d="M180 591 c0 -6 4 -12 8 -15 5 -3 9 1 9 9 0 8 -4 15 -9 15 -4 0 -8 -4
-8 -9z"/>
<path d="M220 550 c-9 -6 -10 -10 -3 -10 6 0 15 5 18 10 8 12 4 12 -15 0z"/>
<path d="M426 519 c-13 -64 -12 -76 5 -87 10 -6 23 -27 30 -47 7 -19 18 -35
24 -35 5 0 -28 -24 -74 -53 -60 -39 -90 -53 -108 -49 l-24 5 21 22 c12 13 35
29 50 35 27 11 28 13 12 29 -9 10 -31 27 -48 39 -22 15 -33 32 -38 59 -3 21
-10 44 -15 52 -13 20 -31 4 -31 -26 0 -15 -14 -41 -36 -66 -65 -72 -78 -115
-79 -262 l0 -130 93 -3 c50 -1 92 0 92 3 0 4 -5 15 -10 26 -8 14 -7 31 4 62
12 36 12 43 0 50 -16 9 -19 53 -4 62 6 3 10 -3 10 -13 0 -38 24 -45 82 -27
121 40 159 76 122 116 -9 10 -29 19 -43 19 l-26 1 25 14 c19 10 27 10 32 2 5
-7 8 -1 8 15 0 31 19 78 32 78 13 0 9 -32 -6 -49 -17 -20 -29 -71 -17 -71 5 0
12 17 16 38 7 33 9 35 14 13 10 -39 28 -35 36 6 7 34 9 36 14 14 10 -38 31
-38 31 -1 0 41 14 66 47 84 l27 13 -23 13 c-19 9 -26 9 -41 -5 -17 -15 -21
-15 -57 9 -21 14 -58 29 -82 35 -24 5 -47 15 -52 22 -5 9 -9 5 -13 -12z m234
-55 c0 -3 -10 -14 -21 -23 -12 -9 -25 -35 -29 -57 l-8 -39 -1 36 c-1 23 7 46
20 63 19 24 39 34 39 20z m-73 -48 c-9 -13 -21 -39 -26 -57 l-11 -34 4 43 c4
43 20 72 38 72 6 0 3 -11 -5 -24z m-99 -138 c14 -14 16 -44 3 -52 -5 -4 -7 4
-4 15 4 15 0 27 -12 35 -11 8 -14 14 -9 14 6 0 15 -5 22 -12z m-38 -16 c0 -5
-7 -9 -15 -9 -8 0 -12 4 -9 9 3 4 9 8 15 8 5 0 9 -4 9 -8z m-204 -28 c19 -9
34 -20 34 -24 0 -4 -16 -23 -35 -43 -19 -20 -35 -32 -35 -27 0 5 -14 25 -31
45 -18 20 -29 41 -25 50 7 20 49 19 92 -1z m149 6 c-3 -5 -12 -10 -18 -10 -7
0 -6 4 3 10 19 12 23 12 15 0z m-128 -95 c-4 -8 -14 -15 -23 -15 -16 0 -16 2
1 20 20 22 31 20 22 -5z m23 -30 c0 -10 -11 -15 -35 -15 -44 0 -46 17 -2 23
17 2 33 5 35 5 1 1 2 -5 2 -13z"/>
<path d="M829 513 l-24 -28 28 24 c25 23 32 31 24 31 -2 0 -14 -12 -28 -27z"/>
<path d="M906 530 c-22 -4 -45 -16 -53 -26 -21 -29 -16 -82 12 -109 28 -29 51
-31 83 -9 27 19 31 87 6 122 -8 12 -11 22 -5 22 6 0 17 -12 25 -27 8 -16 15
-23 16 -18 0 14 -29 55 -38 54 -4 -1 -25 -5 -46 -9z"/>
<path d="M715 437 c-35 -50 0 -127 56 -127 21 0 28 -4 23 -12 -4 -7 2 -4 14 6
12 11 22 20 22 21 0 2 -20 0 -44 -2 -37 -5 -46 -2 -60 18 -27 40 -15 109 21
109 11 0 13 -3 5 -12 -10 -13 -15 -39 -13 -71 1 -24 50 -42 73 -28 10 6 26 11
35 12 14 0 15 2 3 6 -31 12 -50 37 -50 68 0 29 -3 31 -35 32 -25 1 -39 -5 -50
-20z m60 -7 c-3 -5 -3 -10 2 -10 10 0 35 -52 28 -58 -8 -9 -34 19 -38 41 -4
19 -4 19 -6 -3 0 -15 5 -32 12 -39 10 -11 9 -13 -3 -9 -19 6 -25 55 -9 74 13
16 23 19 14 4z"/>
<path d="M966 382 l-19 -27 24 22 c12 12 21 24 18 27 -2 2 -13 -8 -23 -22z"/>
<path d="M918 353 c7 -3 16 -2 19 1 4 3 -2 6 -13 5 -11 0 -14 -3 -6 -6z"/>
<path d="M428 343 c6 -2 18 -2 25 0 6 3 1 5 -13 5 -14 0 -19 -2 -12 -5z"/>
<path d="M740 276 l-35 -11 9 -46 c13 -67 2 -99 -32 -99 -38 0 -55 14 -60 47
-4 30 -21 56 -19 28 1 -10 -4 -20 -10 -22 -8 -3 -13 5 -13 21 0 18 5 26 17 26
9 0 14 3 10 6 -7 7 -77 -17 -77 -27 0 -4 4 -11 10 -14 9 -5 17 -32 34 -107 5
-20 2 -28 -7 -28 -15 0 -47 -31 -47 -44 0 -5 9 2 20 15 10 13 19 19 20 13 0
-5 -5 -15 -12 -22 -7 -7 -10 -12 -7 -12 3 0 25 19 49 41 75 71 168 100 203 61
8 -9 17 -37 20 -62 l4 -45 1 46 c2 53 -24 89 -63 89 -33 0 -31 11 5 38 24 18
30 30 30 60 0 53 -8 60 -50 48z"/>
<path d="M660 250 c-8 -5 -10 -10 -5 -10 6 0 17 5 25 10 8 5 11 10 5 10 -5 0
-17 -5 -25 -10z"/>
<path d="M382 155 c-50 -18 -60 -24 -49 -34 11 -8 22 -9 42 -1 30 11 50 -2 40
-27 -2 -7 0 -13 6 -13 6 0 8 -17 5 -40 -4 -30 -1 -40 9 -40 11 0 15 15 15 63
0 34 1 74 3 90 3 15 1 26 -2 26 -3 -1 -34 -12 -69 -24z"/>
<path d="M738 45 c2 -25 8 -45 13 -45 10 0 12 50 3 74 -12 30 -19 16 -16 -29z"/>
<path d="M765 73 c3 -10 9 -30 12 -45 3 -16 9 -28 14 -28 13 0 11 16 -5 55
-15 35 -34 51 -21 18z"/>
<path d="M656 62 c-13 -21 -25 -62 -18 -62 9 0 34 62 28 68 -2 2 -7 -1 -10 -6z"/>
<path d="M666 15 c-3 -8 -1 -15 4 -15 6 0 10 7 10 15 0 8 -2 15 -4 15 -2 0 -6
-7 -10 -15z"/>
</g>
</svg>
